<?xml version="1.0" standalone="no"?>
<!DOCTYPE svg PUBLIC "-//W3C//DTD SVG 20010904//EN"
 "http://www.w3.org/TR/2001/REC-SVG-20010904/DTD/svg10.dtd">
<svg version="1.0" xmlns="http://www.w3.org/2000/svg"
 width="499.000000pt" height="504.000000pt" viewBox="0 0 499.000000 504.000000"
 preserveAspectRatio="xMidYMid meet">

<g transform="translate(0.000000,504.000000) scale(0.100000,-0.100000)"
fill="#000000" stroke="none">
<path d="M2325 4964 c-150 -13 -255 -28 -320 -45 -22 -6 -67 -17 -100 -26
-185 -48 -399 -135 -590 -243 -262 -146 -484 -337 -714 -615 -176 -212 -361
-594 -441 -910 -80 -315 -92 -748 -30 -1035 12 -52 25 -115 30 -140 21 -110
116 -363 189 -510 245 -487 613 -834 1121 -1058 25 -10 61 -27 82 -36 47 -21
138 -22 138 -1 0 11 12 15 45 15 25 0 45 5 45 10 0 6 15 10 34 10 19 0 41 6
48 13 22 23 82 27 110 9 25 -16 111 -91 193 -167 75 -69 70 -68 359 -63 161 3
269 8 281 15 11 6 54 16 95 22 122 18 144 22 165 32 20 9 86 26 140 36 16 3
35 12 43 19 7 8 27 14 43 14 16 0 29 5 29 10 0 6 9 10 19 10 17 0 53 15 101
42 8 4 22 11 30 14 8 3 23 10 32 15 10 5 25 9 33 9 9 0 18 7 21 15 4 8 17 15
30 15 13 0 24 4 24 10 0 5 11 12 25 16 14 3 25 9 25 14 0 4 18 15 40 25 22 10
40 21 40 25 0 5 10 10 23 14 12 3 35 17 51 31 16 14 33 25 37 25 8 0 43 27 75
57 7 7 16 13 21 13 5 0 28 18 51 40 22 22 45 40 49 40 11 0 213 193 213 204 0
4 15 22 33 39 37 38 95 105 117 137 8 12 22 32 31 44 28 36 105 150 112 166 4
8 16 29 26 45 19 29 124 238 142 280 4 11 16 40 27 65 10 25 24 65 32 90 7 25
18 59 25 75 6 17 17 57 24 90 7 33 17 76 24 95 6 19 14 58 18 85 4 28 12 77
18 110 16 94 19 465 3 493 -7 12 -35 45 -62 73 -28 29 -50 55 -50 58 0 4 -9
17 -21 29 -17 19 -18 23 -5 28 17 7 22 44 6 44 -5 0 -10 7 -10 15 0 8 9 15 20
15 12 0 20 7 20 17 0 9 8 25 18 36 26 29 23 108 -9 222 -23 82 -43 141 -59
180 -10 22 -21 51 -25 65 -9 28 -90 193 -137 278 -38 69 -113 182 -188 281
-30 40 -62 83 -70 96 -41 61 -127 155 -142 155 -10 0 -55 30 -100 67 -258 208
-609 386 -923 466 -33 9 -80 21 -105 28 -61 16 -135 26 -325 44 -183 17 -209
17 -400 -1z m520 -469 c50 -9 104 -20 120 -25 17 -5 57 -16 90 -25 226 -62
488 -200 685 -360 77 -63 230 -217 293 -295 158 -194 310 -494 357 -705 5 -22
19 -83 31 -135 20 -85 22 -123 23 -375 1 -306 -3 -339 -67 -570 -60 -219 -220
-515 -378 -700 -156 -184 -275 -284 -514 -433 -41 -25 -170 -89 -270 -132 -37
-16 -210 -68 -265 -80 -30 -6 -71 -16 -90 -21 -19 -5 -107 -16 -195 -23 -248
-22 -487 2 -725 72 -124 36 -352 137 -445 196 -16 11 -55 35 -85 54 -135 86
-330 266 -440 407 -168 214 -314 509 -369 749 -10 44 -25 108 -32 141 -19 83
-20 585 -1 670 57 253 95 366 184 544 100 200 191 326 356 494 326 332 745
531 1202 571 98 9 448 -4 535 -19z"/>
<path d="M2276 4210 c-16 -5 -81 -11 -145 -13 -128 -5 -155 -12 -189 -52 -20
-23 -30 -26 -57 -22 -24 4 -47 -2 -86 -23 -30 -16 -70 -30 -89 -30 -49 -1 -98
-40 -51 -40 66 0 -8 -69 -174 -161 -33 -18 -77 -51 -98 -72 -21 -21 -45 -36
-52 -33 -17 6 -125 -101 -125 -125 0 -9 -18 -37 -40 -61 -22 -23 -43 -54 -46
-68 -4 -14 -26 -46 -50 -72 -24 -26 -44 -56 -44 -68 0 -11 -13 -47 -30 -80
-22 -43 -28 -67 -24 -89 4 -17 2 -31 -3 -31 -5 0 -27 -24 -48 -52 -34 -46 -40
-60 -38 -100 0 -27 -3 -48 -8 -48 -5 0 -9 -11 -9 -25 0 -16 6 -25 15 -25 20 0
19 -12 -3 -41 -13 -17 -19 -44 -20 -89 -2 -72 -19 -157 -33 -166 -5 -3 -9 -20
-9 -37 0 -22 3 -28 9 -18 6 9 18 11 34 7 31 -7 45 -58 30 -109 -12 -43 -32
-40 -48 6 -18 51 -25 57 -25 19 0 -34 13 -92 40 -187 10 -33 23 -82 30 -110 6
-27 20 -63 30 -80 10 -16 21 -41 25 -55 11 -41 29 -80 37 -80 11 0 -3 72 -23
116 -10 22 -19 47 -19 56 0 9 -7 33 -16 54 -9 22 -20 64 -25 94 -4 30 -11 70
-15 88 -5 28 -4 32 14 32 16 0 22 10 31 63 6 34 10 114 9 177 -2 182 28 329
83 410 13 20 46 92 72 160 82 210 111 263 196 351 42 44 104 109 137 144 44
46 73 67 102 74 26 7 49 22 62 41 12 17 30 30 41 30 22 0 108 33 149 56 114
66 198 99 255 101 70 2 123 12 131 24 3 5 34 9 70 9 35 0 64 4 64 9 0 14 -21
19 -119 26 -77 6 -91 10 -89 24 4 21 90 30 215 23 75 -4 97 -2 117 12 20 12
49 16 138 15 62 0 136 -5 163 -10 28 -5 70 -13 95 -17 25 -4 65 -17 90 -28 47
-22 112 -48 143 -58 10 -3 17 -12 14 -19 -5 -17 -70 -14 -137 7 -92 27 -130
28 -50 1 41 -14 80 -32 86 -40 13 -17 36 -19 50 -5 6 6 28 0 62 -16 41 -20 56
-23 72 -14 36 19 143 -30 196 -90 15 -16 46 -36 70 -44 100 -34 237 -164 288
-272 8 -17 30 -42 48 -56 18 -14 40 -38 48 -54 8 -16 35 -56 61 -89 79 -103
95 -146 59 -165 -27 -15 -25 -25 8 -39 20 -9 36 -29 57 -74 43 -94 54 -141 65
-272 5 -66 12 -143 16 -171 4 -38 2 -58 -9 -75 -19 -29 -27 -120 -11 -126 14
-5 30 36 39 97 4 25 10 68 15 95 5 28 9 84 9 125 1 42 6 81 12 87 7 7 4 29
-10 73 -12 35 -21 74 -21 86 0 23 -15 76 -46 162 -13 34 -19 41 -30 32 -21
-18 -32 -4 -44 56 -13 60 -6 80 16 50 7 -11 16 -17 19 -14 7 7 -42 116 -67
147 l-21 26 6 -32 c10 -50 -22 -44 -56 9 -32 52 -16 113 21 76 9 -9 12 -9 12
3 0 8 -13 28 -29 44 -49 50 -79 80 -88 87 -21 20 -94 77 -101 80 -5 1 -25 25
-45 51 -20 26 -43 55 -52 63 -8 8 -18 21 -22 28 -5 7 -28 25 -51 40 -43 27
-44 27 -64 9 -19 -17 -20 -17 -38 5 -10 12 -23 22 -30 22 -6 0 -41 16 -77 35
-36 19 -78 35 -92 35 -17 0 -38 12 -60 35 -18 19 -45 38 -59 41 -15 3 -48 17
-73 30 -26 13 -57 24 -69 24 -12 0 -30 5 -41 11 -34 18 -211 36 -509 53 -52 3
-108 1 -124 -4z m-263 -145 c-4 -15 -66 -12 -71 3 -3 10 6 13 34 10 22 -2 38
-7 37 -13z m-149 -44 c3 -4 -5 -18 -18 -30 -27 -25 -43 -13 -26 19 11 20 35
27 44 11z m1697 -171 c5 0 9 -13 9 -30 0 -35 -18 -39 -45 -10 -20 23 -13 55
11 46 9 -3 20 -6 25 -6z m399 -506 c0 -8 -4 -14 -10 -14 -5 0 -10 9 -10 21 0
11 5 17 10 14 6 -3 10 -13 10 -21z"/>
<path d="M2712 4089 c3 -8 22 -15 49 -17 53 -4 43 13 -15 24 -31 5 -38 4 -34
-7z"/>
<path d="M2423 4083 c9 -2 25 -2 35 0 9 3 1 5 -18 5 -19 0 -27 -2 -17 -5z"/>
<path d="M3410 3960 c0 -5 5 -10 10 -10 6 0 10 5 10 10 0 6 -4 10 -10 10 -5 0
-10 -4 -10 -10z"/>
<path d="M2445 3761 c-50 -23 -66 -41 -103 -116 -93 -191 -87 -654 11 -838 46
-87 79 -108 166 -108 75 0 111 13 150 54 26 29 24 59 -7 92 -53 58 -65 130
-32 196 51 99 186 106 247 12 27 -41 24 -191 -5 -255 -19 -43 2 -24 196 173
119 122 221 231 225 242 4 12 5 33 2 47 -6 23 -445 463 -454 455 -1 -2 9 -28
23 -59 22 -46 26 -69 26 -140 0 -80 -2 -87 -30 -119 -38 -44 -95 -62 -141 -44
-76 27 -109 72 -109 151 0 45 6 62 35 105 19 28 35 59 35 69 0 27 -40 60 -99
82 -63 25 -85 25 -136 1z"/>
<path d="M1910 3478 c-107 -109 -201 -213 -208 -229 -9 -23 -10 -35 -1 -52 10
-19 339 -351 414 -417 27 -24 26 -22 -9 33 -69 110 -103 209 -114 337 -16 189
15 333 105 488 14 23 21 42 16 41 -4 0 -96 -91 -203 -201z"/>
<path d="M2025 2718 c-11 -35 -17 -107 -22 -244 -4 -137 -3 -152 15 -174 10
-13 23 -21 28 -17 6 3 10 101 11 226 2 190 0 221 -13 221 -8 0 -16 -6 -19 -12z"/>
<path d="M1834 2538 c-32 -36 -44 -75 -44 -138 0 -52 3 -62 31 -89 22 -22 40
-31 63 -31 37 0 70 29 64 57 -3 16 -5 16 -23 -4 -25 -30 -39 -29 -64 3 -26 33
-27 63 -3 70 57 19 69 27 80 58 16 44 15 53 -8 76 -27 27 -72 26 -96 -2z m80
-24 c8 -22 -24 -74 -46 -74 -13 0 -18 8 -18 27 0 46 50 83 64 47z"/>
<path d="M1568 2423 c-24 -28 -38 -81 -38 -142 0 -31 -7 -76 -15 -101 -8 -25
-22 -72 -31 -105 -9 -33 -22 -74 -30 -91 -8 -18 -20 -55 -27 -83 -15 -59 -29
-78 -44 -59 -19 24 -33 81 -33 132 0 28 -7 89 -15 136 -8 47 -15 121 -15 166
0 67 -3 84 -20 102 -25 26 -84 30 -117 7 -23 -16 -53 -93 -53 -136 0 -15 -5
-40 -11 -56 -27 -71 -40 -194 -40 -382 1 -194 5 -221 37 -221 26 0 36 43 44
188 10 167 16 207 37 223 27 23 37 -6 62 -176 12 -82 60 -203 84 -211 62 -20
91 28 153 254 13 46 22 62 35 62 13 0 18 -11 22 -47 6 -66 63 -212 94 -245 15
-16 35 -28 46 -28 21 0 20 27 -3 235 -7 61 -10 189 -7 328 l5 228 -31 20 c-40
24 -69 24 -89 2z"/>
<path d="M3591 2413 c-15 -33 -30 -118 -39 -223 l-7 -75 -63 3 c-89 5 -106 -1
-124 -45 -81 -198 -111 -327 -88 -382 18 -44 72 -73 129 -69 41 3 49 7 83 53
21 28 43 50 50 50 7 0 15 -13 18 -30 12 -59 27 -75 70 -75 l40 0 0 43 c-1 23
-7 69 -15 102 -17 70 -20 329 -5 370 18 47 40 169 40 221 0 37 -5 56 -18 67
-28 25 -57 21 -71 -10z m-83 -385 c17 -17 15 -88 -3 -132 -39 -92 -75 -164
-89 -179 -28 -28 -46 -10 -46 46 0 50 25 172 40 192 4 6 10 23 14 40 4 16 13
33 19 37 18 12 52 9 65 -4z"/>
<path d="M4051 2384 c0 -11 3 -14 6 -6 3 7 2 16 -1 19 -3 4 -6 -2 -5 -13z"/>
<path d="M2585 2176 c-32 -14 -49 -35 -89 -111 -45 -83 -46 -312 -2 -378 28
-43 98 -77 157 -77 56 0 80 18 101 75 27 72 2 86 -52 30 -25 -26 -42 -35 -67
-35 -30 0 -36 5 -49 36 -23 55 -28 128 -15 207 14 81 38 154 53 163 16 10 31
-13 34 -53 1 -21 2 -41 3 -45 1 -5 12 -8 26 -8 50 0 73 105 36 166 -26 43 -80
55 -136 30z"/>
<path d="M2908 2184 c-22 -7 -62 -70 -82 -128 -19 -55 -23 -307 -6 -368 19
-69 106 -112 152 -75 20 16 58 81 58 99 0 19 32 48 53 48 10 0 17 -8 17 -18 0
-22 49 -100 68 -107 20 -7 52 13 52 33 0 9 -5 33 -11 52 -23 76 -41 180 -46
275 l-5 100 -67 42 c-65 41 -139 60 -183 47z m122 -121 c24 -30 23 -49 -9
-150 -10 -32 -26 -87 -36 -123 -22 -78 -35 -95 -65 -85 -21 7 -21 10 -17 128
5 127 17 201 39 237 19 29 62 26 88 -7z"/>
<path d="M1868 2170 c-26 -15 -74 -100 -92 -163 -9 -32 -19 -92 -22 -135 -12
-162 68 -274 197 -276 34 -1 53 5 69 19 25 22 60 96 60 126 0 33 -37 22 -71
-21 -37 -45 -64 -51 -98 -19 -29 27 -41 60 -41 114 0 49 8 55 75 55 36 0 47 5
62 28 54 79 70 183 37 231 -30 43 -132 66 -176 41z m107 -79 c15 -18 16 -25 4
-71 -15 -58 -48 -100 -78 -100 -44 0 -32 98 20 164 24 31 31 32 54 7z"/>
<path d="M2145 2150 c-19 -21 -19 -24 -10 -314 4 -119 7 -145 27 -185 20 -39
27 -46 53 -46 46 0 55 29 55 185 0 112 3 139 18 157 26 34 105 93 123 93 22 0
32 27 19 51 -18 32 -56 34 -111 5 -28 -14 -55 -23 -60 -20 -5 3 -9 21 -9 40 0
28 -5 36 -26 44 -38 15 -59 12 -79 -10z"/>
<path d="M3802 2132 c-42 -32 -64 -114 -72 -271 -8 -150 -4 -190 21 -201 33
-16 118 -40 140 -40 57 1 138 183 139 311 0 124 -70 219 -161 219 -26 0 -53
-7 -67 -18z m128 -113 c28 -51 0 -198 -51 -268 -49 -68 -79 -50 -79 48 0 65 9
103 41 177 31 72 65 89 89 43z"/>
<path d="M1290 1544 c0 -11 -5 -25 -11 -31 -19 -19 0 -51 74 -126 77 -78 181
-161 231 -183 17 -8 38 -18 46 -23 8 -4 31 -16 50 -26 19 -10 45 -29 57 -42
12 -13 34 -23 48 -23 14 0 45 -9 68 -21 69 -34 157 -59 206 -59 26 0 51 -4 56
-9 6 -5 33 -11 60 -14 28 -2 75 -12 105 -21 30 -9 97 -21 148 -26 77 -7 107
-5 180 11 48 11 112 25 142 30 30 6 64 14 75 19 53 23 208 70 232 70 27 0 87
16 113 31 8 4 34 18 58 30 23 13 42 26 42 31 0 4 6 8 13 8 6 0 35 18 62 40 28
22 56 40 64 40 18 0 99 61 136 102 91 102 96 109 84 124 -21 25 -58 16 -107
-28 -26 -24 -53 -51 -60 -61 -8 -10 -37 -29 -65 -41 -29 -13 -68 -39 -87 -58
-19 -19 -54 -40 -77 -46 -24 -7 -43 -17 -43 -22 0 -5 -19 -22 -42 -37 -33 -21
-58 -28 -107 -30 -34 -1 -68 -6 -75 -11 -17 -14 -103 -35 -114 -28 -5 3 -31
-6 -58 -19 -27 -14 -61 -25 -75 -25 -20 0 -25 -5 -25 -22 1 -22 -4 -23 -99
-32 -127 -11 -224 -11 -300 0 -53 8 -60 12 -58 30 3 26 -32 34 -154 34 -56 0
-99 6 -135 19 -29 11 -70 23 -90 26 -40 8 -163 83 -188 116 -9 11 -49 31 -90
45 -85 30 -130 61 -161 111 -12 19 -31 45 -43 57 -12 12 -36 42 -53 66 -25 33
-33 39 -33 24z"/>
<path d="M3742 1481 c-9 -16 -28 -36 -42 -44 -42 -25 -70 -53 -70 -71 0 -16 2
-16 31 1 33 19 129 119 129 134 0 20 -32 7 -48 -20z"/>
<path d="M3540 1284 c-41 -29 -82 -59 -90 -66 -25 -22 -90 -68 -95 -68 -3 0
-11 -5 -18 -10 -62 -53 -266 -152 -392 -190 -22 -6 -53 -18 -70 -25 -16 -7
-50 -19 -75 -27 -44 -13 -45 -13 -13 -16 28 -3 134 34 195 68 10 6 26 10 36
10 25 0 111 31 152 56 19 11 62 33 95 48 55 26 135 81 160 111 6 7 24 19 42
28 18 10 36 23 40 30 4 7 29 28 55 46 26 19 49 40 52 47 3 8 4 14 3 13 -1 0
-36 -25 -77 -55z"/>
<path d="M2625 880 c3 -5 13 -10 21 -10 8 0 14 5 14 10 0 6 -9 10 -21 10 -11
0 -17 -4 -14 -10z"/>
</g>
</svg>
